<svg xmlns="http://www.w3.org/2000/svg" viewBox="0 0 82.08 33.67">
    <defs>
        <style>.cls-1{fill-rule:evenodd;}</style>
    </defs>
    <title>logo_art</title>
    <g id="Livello_2" data-name="Livello 2">
        <g id="Layer_1" data-name="Layer 1">
            <!-- Letters before 'e' in white -->
            <path fill="white" d="M5.73,33.42V32.35a4.91,4.91,0,0,1-3.11,1.32C.88,33.67.1,32.74.05,30.85V22.93A3.58,3.58,0,0,1,.34,21a2.45,2.45,0,0,1,2.28-1.17,4.56,4.56,0,0,1,3.11,1.32V13.25H2.87v4H0V14.32c0-2.72,1.12-3.69,4.28-3.69s4.32,1,4.32,3.79v19Zm0-10.93H2.87V31H5.73Z"/>
            <path fill="white" d="M14.14,11.94a4.5,4.5,0,0,1,3.16-1.31c1.75,0,2.58.88,2.58,2.82v3.79H17v-4H14.14V33.42H11.27V10.87h2.87Z"/>
            <path fill="white" d="M25.66,13.4V30.9h2.82v2.52H26.34c-2.67,0-3.55-1.11-3.55-4.27V13.4H20.36V10.87h2.43V4.65h2.87v6.22h2.82V13.4Z"/>

            <!-- The accent mark in orange -->
            <path class="cls-1" fill="#FFA500" d="M42.14,6.53v.2H42l-.5.59h-.19a2.93,2.93,0,0,0-.6,1h-.2c-.09.12-.23.11-.3.2v.2l-.2.1V9c-.19.25-.65.21-1.1.2v.1c-.17.08-.31-.06-.39-.1v-.1l-.7.1a1.31,1.31,0,0,0-.3-.4,1.82,1.82,0,0,1,.5-1.5l.3-.2V6.83l.2-.1v-.3h.1v-.2h.1V6l.39-.3v-.2l.2-.1v-.2h.1V5l.2-.2v-.2l.4-.3c0-.13.07-.26.1-.39h.1v-.5h.1v-.2h.1V3l.2-.1c.13-.63.26-1.26.4-1.89h.1c.06-.2.13-.4.2-.6h.09a.8.8,0,0,0,.2-.4.87.87,0,0,1,.8.1v.1c.32.12.58-.09.8-.1l1,.2a2.25,2.25,0,0,0,.4.6v1h-.1c-.06.2-.13.4-.2.6h-.1v.3l-.2.1v.3h-.1c-.06.2-.13.4-.19.6h-.1v.4h-.1v.19h-.1v.3l-.2.1c0,.1-.07.2-.1.3l-.3.2v.2h-.1v.2h-.1C42.44,6.17,42.7,6.38,42.14,6.53Z"/>

            <!-- The 'e' character in orange -->
            <path class="cls-1" fill="#FFA500" d="M46,20.17a3.55,3.55,0,0,0-.1-1.09h-.3v.1l-.7.5v.2h-.1v.29h-.1c0,.17-.06.33-.1.5l-.4.2c-.09.13-.2.27-.3.4l-.19.1v.2l-.3.2v.6h-.5a2,2,0,0,1-.6.79l-.2.1v.2l-.2.1v.3h-.1l-.2.3c-.17.12-.57.13-.69.3s-.14.57-.3.69l-.4.1-.1.2H40c-.19.15-.16.49-.3.7h-.1c-.06.1-.13.2-.2.3h-.2v.1h-.29v.1l-.3.1c-.1.37-.32.6-.4,1a1.25,1.25,0,0,0-.9.5,1.24,1.24,0,0,1-.2.1v.2l-.2.1v.2l-.2.1V29l-1.09.1-.1.2h-.2l-.2.3-.9.29a4.68,4.68,0,0,1-2-.19,8,8,0,0,1,.2-2.89,4,4,0,0,0,.7-.1v-.2h.1l.3-.4h.29l.3-.4.3-.1v-.79c0-.05.13,0,.2-.3h.5v-.1l.5-.4v-.2l.4-.3v-.2c.38-.09.42-.29.59-.6h.1v-.3h.1a.73.73,0,0,0,.2-.39l.6-.1c0-.14.07-.27.1-.4h.1v-.3l.2-.1V21c0-.06.13-.08.2-.2a3.26,3.26,0,0,0,.7-.1,1.94,1.94,0,0,1,.59-.79l.2-.1c0-.14.07-.27.1-.4h.1l.1-.3.6-.2a.8.8,0,0,1,.2-.4h.1c0-.1.06-.2.1-.3l.2-.1v-.2l.2-.1v-.3l.19-.1v-.29h.1v-.2h.1v-.3h.1v-.5a2.17,2.17,0,0,0-.69-2.29l-.1-.2-.9-.2v-.1l-.5-.1v-.1h-.2V13l-.1.1h-.89v.1h-.7l-.1.2h-.3v.1h-.2v.1h-.9c-.11.41-.29.38-.59.6l-.2.3-.4.1-.1.19-.4.1V15l-.2.1v.2l-.4.3v.2l-.39.3v.2l-.6.4-.3,1.59h-.1l-.1.2h-.2l-.1.2-.4.3v.2h-.1v.2h-.1v.4h-.1V20h-.1v.4h-.1c0,.17-.06.34-.1.5h-.09v.2H31v.3h-.1v.2h-.1c0,.26-.07.53-.1.8h-.1v.29h-.1v.2h-.1v.4h-.1V24h-.1v.5h-.1v.4l-.2.09c0,.14-.07.27-.1.4l-.2.1v.2h-.1v.4h-.1v.2h-.1c0,.6-.06,1.19-.1,1.79.13.1.2.32.3.4h.2l.2.3H30c.17.86.33,1.73.5,2.59h.4v.1c.21.23.07.49.2.8h.09v.2l.3.1c.07.1.14.19.2.29h.2c0,.07.07.14.1.2a1.31,1.31,0,0,0,.7.4v.1a4.58,4.58,0,0,0,1-.3c.49,0,.62.09.79.4l.9-.1.1-.2h.2v-.1l.4-.1.09-.2h.21v-.1h.19v-.1h.2v-.09H37l.2-.2h.2l.3-.4h.2l.7-.8h.2v-.1H39a1.86,1.86,0,0,0,.1-.2l.5-.1v-.1l.3-.2v-.3H40V30h.1v-.2c0-.05.14-.09.2-.2l.6-.1c.11-.44.49-.55.69-.9h.2c0-.13.07-.27.1-.4h.1v-.7H42v-.1h.3v.2h.3a.76.76,0,0,1,.2-.39h.1c0-.14.07-.27.1-.4l.3-.2c0-.13.06-.27.1-.4l.2-.1v-.3l.2-.1c.06-.2.13-.4.19-.6l.3-.1a1.74,1.74,0,0,0,.1-.19l.3-.2v-.2l.6-.5v-.3h.1v-.4h.1v-.7h.1c0-.16.07-.33.1-.49h.1l.1-.4H46C46.23,21.11,45.69,20.58,46,20.17Zm-11.86.5c.07-.4.14-.79.2-1.19l.2-.1v-.2l.4-.3.2-.3h.1v-.2l.6-.5c.13-.15.22-.49.39-.6h.3a1.74,1.74,0,0,0,.1-.19l.4-.1.3-.4h.2v-.1c.45-.18.61.1.9-.3.38,0,.41,0,.49.3h.1a1.94,1.94,0,0,1-.59.79l-.2.1a3.48,3.48,0,0,0-.3.8c-.2.06-.09,0-.2.1-.48.14-.12.09-.3.4l-.2.1V19l-.2.1a2.07,2.07,0,0,0-.6.89c-.41.11-.38.31-.59.6l-.5.4v.2h-.1l-.3.4c-.23.2-.53.23-.7.5h-.2v.2h-.2v.19c-.19-.06-.08,0-.19-.09C33.45,22,34.05,21,34.17,20.67Z"/>

            <!-- Letters after 'e' in white -->
            <path fill="white" d="M50.1,11.94a4.5,4.5,0,0,1,3.16-1.31,2.39,2.39,0,0,1,2.33,1.31,4.5,4.5,0,0,1,3.26-1.31c1.89,0,2.67.83,2.72,2.82v20H58.7V13.25H55.83V33.42H53V13.25H50.1V33.42H47.23V10.87H50.1Z"/>
            <path fill="white" d="M69.83,33.42V32.35a4.93,4.93,0,0,1-3.11,1.32c-1.75,0-2.53-.93-2.58-2.82V22.93a3.46,3.46,0,0,1,.3-1.9,2.44,2.44,0,0,1,2.28-1.17,4.58,4.58,0,0,1,3.11,1.32V13.25H67v4H64.1V14.32c0-2.72,1.11-3.69,4.27-3.69s4.33,1,4.33,3.79v19Zm0-10.93H67V31h2.87Z"/>
            <path fill="white" d="M79.26,13.4V30.9h2.82v2.52H79.94c-2.68,0-3.55-1.11-3.55-4.27V13.4H74V10.87h2.43V4.65h2.87v6.22h2.82V13.4Z"/>
        </g>
    </g>
</svg>